<svg width="441" height="272" viewBox="0 0 441 272" fill="none" xmlns="http://www.w3.org/2000/svg">
<path d="M411.591 270.767C400.374 269.225 398.324 267.141 397.573 256.513C397.302 252.686 396.947 252.303 392.941 251.526C387.418 250.455 321.007 247.901 319.807 248.713C319.313 249.047 318.673 252.011 318.385 255.298C317.735 262.702 315.368 265.713 309.554 266.53C307.087 266.877 289.447 267.712 270.353 268.386C251.26 269.06 231.225 269.94 225.832 270.342C216.426 271.043 215.894 270.949 212.818 268.052C210.054 265.448 209.536 263.991 209.065 257.498L208.517 249.964L193.33 249.668C184.976 249.504 168.637 249.772 157.02 250.262L135.897 251.152L134.987 256.208C133.421 264.899 133.902 264.816 84.9699 264.816C59.2218 264.816 41.0044 264.345 39.3001 263.636C37.6587 262.952 35.8214 260.768 34.9364 258.448C33.4294 254.498 33.2953 254.434 25.3756 253.877C19.4167 253.458 15.4804 252.358 10.1267 249.614C2.58374 245.748 0.650831 243.221 2.77403 240.001C4.3565 237.6 3.49855 240.274 12.5412 209.567C16.7749 195.19 21.0273 179.952 21.9909 175.705C24.8968 162.896 30.2408 145.463 31.5467 144.534C32.2211 144.054 39.0851 143.653 46.8001 143.643L60.8272 143.626L65.3733 148.972L69.9195 154.319H95.0451C118.019 154.319 120.223 154.141 120.781 152.24C124.512 139.522 123.482 139.896 156.72 139.185C186.118 138.555 232.792 140.451 236.134 142.41C237.217 143.045 239.074 145.367 240.261 147.571L242.419 151.577L276.203 153.126C294.784 153.978 310.337 154.292 310.764 153.824C311.191 153.356 312.286 150.763 313.197 148.062C316.184 139.207 317.721 138.846 344.123 140.795C356.653 141.72 375.203 142.869 385.345 143.348L403.786 144.22L406.5 149.746C407.992 152.785 410.272 158.933 411.566 163.409C415.597 177.353 423.47 207.951 424.842 215.007C425.296 217.344 426.002 219.848 426.41 220.571C426.818 221.294 428.107 226.6 429.275 232.361C432.323 247.398 436.375 262.782 438.073 265.759C439.159 267.664 439.22 268.667 438.309 269.665C436.712 271.414 421.008 272.062 411.591 270.768L411.591 270.767ZM96.3848 124.641C82.7496 122.943 72.1729 117.151 66.6921 108.38C60.5713 98.5858 56.5112 76.91 57.3989 58.7667C57.8275 50.0056 58.3651 48.1098 63.5473 37.084C75.41 11.8443 90.9021 1.0459 115.25 1.0459C137.838 1.0459 152.119 7.61851 160.857 22.0369C177.416 49.3591 174.995 82.564 154.855 104.365C138.668 121.887 121.652 127.788 96.3848 124.641ZM319.637 114.756C306.5 110.654 295.361 99.0201 289.105 82.8668C286.854 77.0542 286.636 74.665 286.632 55.701C286.625 35.2924 286.684 34.7715 289.75 27.501C293.328 19.0175 300.473 11.0446 308.45 6.6346C316.659 2.09663 324.524 0.661084 337.759 1.28497C348.3 1.78179 350.26 2.23781 356.284 5.59503C368.541 12.4256 379.505 25.2944 385.308 39.661C388.27 46.9933 390.788 67.3748 389.884 76.6938C387.86 97.553 380.424 107.291 362.156 113.007C352.773 115.943 326.852 117.01 319.637 114.756Z" fill="#D68949"/>
<path d="M411.591 270.767C400.374 269.225 398.324 267.141 397.573 256.513C397.302 252.686 396.947 252.303 392.941 251.526C387.418 250.455 321.007 247.901 319.807 248.713C319.313 249.047 318.673 252.011 318.385 255.298C317.735 262.702 315.368 265.713 309.554 266.53C307.087 266.877 289.447 267.712 270.353 268.386C251.26 269.06 231.225 269.94 225.832 270.342C216.426 271.043 215.894 270.949 212.818 268.052C210.054 265.448 209.536 263.991 209.065 257.498L208.517 249.964L193.33 249.668C184.976 249.504 168.637 249.772 157.02 250.262L135.897 251.152L134.987 256.208C133.421 264.899 133.902 264.816 84.9699 264.816C59.2218 264.816 41.0044 264.345 39.3001 263.636C37.6587 262.952 35.8214 260.768 34.9364 258.448C33.4294 254.498 33.2953 254.434 25.3756 253.877C19.4167 253.458 15.4804 252.358 10.1267 249.614C2.58374 245.748 0.650831 243.221 2.77403 240.001C4.3565 237.6 3.49855 240.274 12.5412 209.567C16.7749 195.19 21.0273 179.952 21.9909 175.705C24.8968 162.896 30.2408 145.463 31.5467 144.534C32.2211 144.054 39.0851 143.653 46.8001 143.643L60.8272 143.626L65.3733 148.972L69.9195 154.319H95.0451C118.019 154.319 120.223 154.141 120.781 152.24C124.512 139.522 123.482 139.896 156.72 139.185C186.118 138.555 232.792 140.451 236.134 142.41C237.217 143.045 239.074 145.367 240.261 147.571L242.419 151.577L276.203 153.126C294.784 153.978 310.337 154.292 310.764 153.824C311.191 153.356 312.286 150.763 313.197 148.062C316.184 139.207 317.721 138.846 344.123 140.795C356.653 141.72 375.203 142.869 385.345 143.348L403.786 144.22L406.5 149.746C407.992 152.785 410.272 158.933 411.566 163.409C415.597 177.353 423.47 207.951 424.842 215.007C425.296 217.344 426.002 219.848 426.41 220.571C426.818 221.294 428.107 226.6 429.275 232.361C432.323 247.398 436.375 262.782 438.073 265.759C439.159 267.664 439.22 268.667 438.309 269.665C436.712 271.414 421.008 272.062 411.591 270.768L411.591 270.767ZM429.283 252.51C429.283 250.192 416.418 199.936 414.437 194.512C413.522 192.01 412.129 189.962 411.339 189.962C409.88 189.962 405.416 195.975 405.416 197.94C405.416 198.532 403.229 201.823 400.555 205.253C395.598 211.613 386.083 230.969 387.273 232.272C387.634 232.667 392.23 233.272 397.486 233.615C411.805 234.552 413.643 236.07 414.348 247.541C414.672 252.811 416.233 253.788 424.672 254.004C427.886 254.087 429.283 253.634 429.283 252.51ZM266.463 249.847C267.238 249.035 257.824 221.919 253.069 211.267C248.083 200.098 243.174 192.339 241.096 192.339C237.842 192.339 224.986 204.96 216.296 216.684C211.123 223.664 206.89 229.864 206.89 230.462C206.89 231.059 210.009 231.548 213.821 231.548C223.657 231.548 225.61 233.511 226.22 244.011L226.687 252.038L246.351 251.178C257.165 250.705 266.216 250.106 266.463 249.847ZM303.02 240.531C303.77 236.415 305.117 232.825 306.251 231.917C307.713 230.746 314.056 230.36 331.854 230.36C344.867 230.36 355.513 229.919 355.513 229.38C355.513 226.474 349.567 209.961 345.523 201.639C340.275 190.836 336.777 186.125 334.692 187.05C333.912 187.395 331.322 190.907 328.935 194.854C326.548 198.801 322.747 203.653 320.487 205.636C317.844 207.957 313.055 215.397 307.056 226.504C296.254 246.506 295.497 248.569 299.181 247.989C301.354 247.648 301.925 246.538 303.02 240.531ZM68.0303 245.256C68.0303 242.507 58.4572 214.11 53.9335 203.442C51.4166 197.506 48.7043 192.948 46.9323 191.676C44.1542 189.682 43.9239 189.694 41.1184 191.969C39.5117 193.272 36.8467 196.522 35.1961 199.191C31.9663 204.414 21.3821 229.648 21.3821 232.125C21.3821 234.078 26.327 235.112 35.67 235.112C42.1945 235.112 43.5262 235.494 45.8404 238.029C47.3049 239.633 48.5031 241.95 48.5031 243.177C48.5031 246.678 49.3709 246.994 58.99 246.994C66.2002 246.994 68.0303 246.642 68.0303 245.256V245.256ZM114.584 246.015C118.744 245.317 119.526 244.71 120.551 241.381C123.099 233.102 123.478 232.983 150.24 232.048C163.534 231.584 174.603 230.864 174.838 230.448C175.666 228.979 160.432 196.397 155.491 189.071C148.596 178.847 147.333 179.003 136.047 191.468C127.845 200.528 99.4907 242.634 99.4907 245.754C99.4907 247.131 107.14 247.263 114.584 246.015V246.015ZM293.391 216.993C299.456 206.374 305.973 194.033 307.871 189.568C312.85 177.859 313.086 178 286.053 176.514C261.925 175.188 261.586 175.271 262.886 182.239C263.251 184.2 266.637 194.893 270.41 206.003C279.227 231.965 280.839 236.301 281.675 236.301C282.053 236.301 287.325 227.612 293.391 216.993ZM91.3161 224.091C107.294 199.963 115.763 185.858 115.763 183.376C115.763 179.038 110.938 178.081 89.0768 178.081C66.2778 178.081 66.9252 177.759 68.0847 188.529C69.0398 197.401 81.9202 233.977 84.0596 233.893C84.4918 233.877 87.7572 229.465 91.3161 224.091ZM374.617 216.399C377.832 210.426 393.074 177.039 394.622 172.578C395.219 170.858 395.082 169.536 394.227 168.759C392.718 167.388 363.039 165.085 357.777 165.931C355.841 166.242 353.999 167.232 353.684 168.131C352.703 170.93 369.274 222.043 371.163 222.043C371.392 222.043 372.947 219.503 374.617 216.399ZM213.839 190.184C218.669 183.445 223.542 176.669 224.667 175.128C227.104 171.792 226.506 169.473 222.457 166.566C219.823 164.674 216.316 164.369 193.108 164.012C169.872 163.655 166.751 163.825 166.751 165.448C166.751 167.605 185.092 212.16 187.939 216.919L189.879 220.162L197.469 211.3C201.643 206.426 209.01 196.924 213.839 190.184ZM96.3848 124.641C82.7496 122.943 72.1729 117.151 66.6921 108.38C60.5713 98.5858 56.5112 76.91 57.3989 58.7667C57.8275 50.0056 58.3651 48.1098 63.5473 37.084C75.41 11.8443 90.9021 1.0459 115.25 1.0459C137.838 1.0459 152.119 7.61851 160.857 22.0369C177.416 49.3591 174.995 82.564 154.855 104.365C138.668 121.887 121.652 127.788 96.3848 124.641ZM111.14 66.672C121.845 53.755 131.154 42.0596 131.827 40.6822C132.827 38.6354 132.675 37.8054 130.994 36.1392C129.669 34.8253 128.375 34.4553 127.356 35.0985C124.355 36.9924 86.5243 83.6273 86.4985 85.4643C86.4678 87.6456 88.5435 90.1575 90.3766 90.1575C91.0917 90.1575 100.435 79.589 111.14 66.672ZM137.346 87.3377C138.937 85.2378 137.938 82.4564 134.776 80.1876C133.4 79.2001 129.328 75.4048 125.727 71.7535L119.18 65.1149L116.896 67.8C115.64 69.2769 114.753 71.29 114.926 72.2736C115.357 74.7246 131.783 88.9694 134.178 88.9694C135.241 88.9694 136.666 88.2351 137.346 87.3377ZM104.336 54.5571C105.396 53.2745 106.007 51.4936 105.693 50.5995C105.38 49.7054 101.934 45.9064 98.0347 42.1572C91.8669 36.2266 90.6548 35.5109 88.7091 36.6514C87.479 37.3724 86.4726 38.7918 86.4726 39.8056C86.4726 41.985 99.253 56.8892 101.122 56.8892C101.83 56.8892 103.276 55.8398 104.336 54.5571ZM319.637 114.756C306.5 110.654 295.361 99.0201 289.105 82.8668C286.854 77.0542 286.636 74.665 286.632 55.701C286.625 35.2924 286.684 34.7715 289.75 27.501C293.328 19.0175 300.473 11.0446 308.45 6.6346C316.659 2.09663 324.524 0.661084 337.759 1.28497C348.3 1.78179 350.26 2.23781 356.284 5.59503C368.541 12.4256 379.505 25.2944 385.308 39.661C388.27 46.9933 390.788 67.3748 389.884 76.6938C387.86 97.553 380.424 107.291 362.156 113.007C352.773 115.943 326.852 117.01 319.637 114.756ZM362.89 74.4739C363.606 73.6897 364.192 72.2348 364.192 71.2409C364.192 69.2022 352.394 55.6807 350.666 55.7383C350.05 55.7586 348.682 57.0783 347.624 58.6704L345.701 61.565L352.506 68.7065C359.63 76.1827 360.758 76.8095 362.89 74.4739ZM336.139 65.5033C338.07 62.3992 344.234 54.6563 349.835 48.2967C360.128 36.6102 361.258 34.0677 357.31 31.4712C355.577 30.3313 354.004 31.6622 345.521 41.4432C326.923 62.8879 323.286 70.475 331.324 71.0532C332.041 71.1048 334.208 68.6074 336.139 65.5033ZM334.234 46.8317C335.198 45.2209 335.986 43.6278 335.986 43.2912C335.986 42.5913 324.977 35.5305 323.859 35.5135C322.779 35.4967 319.714 39.0574 319.714 40.3284C319.714 41.6733 329.551 49.6901 331.251 49.7308C331.928 49.7476 333.271 48.4424 334.234 46.8317Z" fill="#9B6336"/>
<path d="M411.591 270.767C400.374 269.225 398.324 267.141 397.573 256.513C397.302 252.686 396.947 252.303 392.941 251.526C387.418 250.455 321.007 247.901 319.807 248.713C319.313 249.047 318.673 252.011 318.385 255.298C317.735 262.702 315.368 265.713 309.554 266.53C307.087 266.877 289.447 267.712 270.353 268.386C251.26 269.06 231.225 269.94 225.832 270.342C216.426 271.043 215.894 270.949 212.818 268.052C210.054 265.448 209.536 263.991 209.065 257.498L208.517 249.964L193.33 249.668C184.976 249.504 168.637 249.772 157.02 250.262L135.897 251.152L134.987 256.208C133.421 264.899 133.902 264.816 84.9699 264.816C59.2218 264.816 41.0044 264.345 39.3001 263.636C37.6587 262.952 35.8214 260.768 34.9364 258.448C33.4294 254.498 33.2953 254.434 25.3756 253.877C19.4167 253.458 15.4804 252.358 10.1267 249.614C2.58374 245.748 0.650831 243.221 2.77403 240.001C4.3565 237.6 3.49855 240.274 12.5412 209.567C16.7749 195.19 21.0273 179.952 21.9909 175.705C24.8968 162.896 30.2408 145.463 31.5467 144.534C32.2211 144.054 39.0851 143.653 46.8001 143.643L60.8272 143.626L65.3733 148.972L69.9195 154.319H95.0451C118.019 154.319 120.223 154.141 120.781 152.24C124.512 139.522 123.482 139.896 156.72 139.185C186.118 138.555 232.792 140.451 236.134 142.41C237.217 143.045 239.074 145.367 240.261 147.571L242.419 151.577L276.203 153.126C294.784 153.978 310.337 154.292 310.764 153.824C311.191 153.356 312.286 150.763 313.197 148.062C316.184 139.207 317.721 138.846 344.123 140.795C356.653 141.72 375.203 142.869 385.345 143.348L403.786 144.22L406.5 149.746C407.992 152.785 410.272 158.933 411.566 163.409C415.597 177.353 423.47 207.951 424.842 215.007C425.296 217.344 426.002 219.848 426.41 220.571C426.818 221.294 428.107 226.6 429.275 232.361C432.323 247.398 436.375 262.782 438.073 265.759C439.159 267.664 439.22 268.667 438.309 269.665C436.712 271.414 421.008 272.062 411.591 270.768L411.591 270.767ZM430.368 252.51C430.368 248.91 415.522 191.758 413.443 187.355C411.54 183.325 410.804 183.238 407.847 186.695C403.874 191.341 385.889 228.419 385.889 231.964C385.889 234.266 389.294 235.077 399.032 235.096C410.317 235.12 413.01 237.32 413.01 246.524C413.01 254.188 414.194 255.116 424.13 255.236C429.979 255.306 430.368 255.137 430.368 252.51ZM266.989 250.56C268.323 249.099 267.175 245.177 257.77 219.072C248.504 193.351 246 188.265 242.382 187.804C240.029 187.504 238.081 188.833 232.829 194.319C225.521 201.954 205.463 228.322 204.912 231.019C204.632 232.389 206.09 232.736 212.115 232.736C222.095 232.736 224.345 234.615 225.012 243.505C225.81 254.157 224.038 253.399 246.163 252.559C257.551 252.126 266.328 251.284 266.989 250.56ZM304.175 241.695C304.934 237.479 306.251 233.974 307.429 233.03C308.956 231.807 314.665 231.503 332.457 231.699C345.134 231.839 355.848 231.577 356.268 231.118C358.841 228.3 341.861 184.575 336.891 181.221C335.594 180.345 334.588 180.451 333.328 181.596C327.49 186.903 293.981 245.837 295.387 248.327C295.752 248.974 297.592 249.34 299.475 249.14C302.729 248.794 302.962 248.425 304.175 241.695ZM69.6426 247.02C70.4384 245.61 57.3224 206.905 52.1192 195.309C50.0667 190.735 47.4645 185.968 46.3366 184.716C44.3178 182.475 44.2356 182.498 41.0629 186.218C34.7843 193.579 18.1896 232.091 20.3002 234.403C20.9383 235.102 26.4466 235.948 32.5408 236.284C38.6351 236.62 44.194 237.302 44.894 237.799C45.5939 238.297 46.5056 240.436 46.92 242.552C47.3344 244.668 47.8889 246.801 48.1523 247.291C48.8668 248.621 68.8819 248.369 69.6426 247.021V247.02ZM117.301 247.15C119.833 246.55 120.774 245.387 122.006 241.337C122.853 238.552 124.358 235.818 125.35 235.261C126.342 234.705 137.878 233.9 150.984 233.473C164.091 233.046 175.226 232.246 175.73 231.695C177.339 229.932 159.689 189.491 152.979 179.566C148.323 172.68 145.351 174.409 133.25 191.046C120.758 208.219 97.0945 245.631 97.8627 246.993C98.5853 248.273 112.104 248.383 117.301 247.151V247.15ZM286.95 230.657C298.978 211.099 314.289 181.41 314.289 177.645C314.289 176.72 312.947 175.59 311.306 175.136C308.542 174.371 275.341 172.273 264.52 172.181L259.771 172.14L260.306 177.784C260.601 180.888 264.574 194.025 269.135 206.978C278.143 232.556 280.179 237.489 281.732 237.489C282.291 237.489 284.639 234.414 286.95 230.657V230.657ZM101.542 210.755C113.966 191.583 121.188 178.747 121.188 175.835C121.188 174.091 64.1303 173.965 63.1474 175.707C62.7781 176.361 63.772 181.574 65.3562 187.291C68.4884 198.594 80.6236 232.373 82.4544 234.884C84.0757 237.107 86.2271 234.388 101.542 210.755V210.755ZM375.58 216.782C380.917 207.644 397.822 169.984 397.822 167.233C397.822 165.97 397.212 164.717 396.466 164.449C393.092 163.235 357.907 161.535 354.971 162.443C352.007 163.361 351.746 163.849 352.047 167.902C352.371 172.265 362.862 206.456 367.293 217.587C368.528 220.691 370.051 223.231 370.676 223.231C371.301 223.231 373.508 220.329 375.58 216.782ZM198.272 212.463C212.132 195.34 229.623 171.487 229.647 169.674C229.688 166.57 225.107 162.856 219.555 161.493C211.821 159.595 164.318 159.342 163.753 161.197C162.781 164.393 187.595 220.854 189.972 220.854C190.801 220.854 194.536 217.078 198.272 212.463V212.463ZM30.0442 167.02C30.0535 166.492 29.5727 166.39 28.976 166.793C28.3793 167.197 27.8986 168.432 27.9078 169.537C27.9222 171.268 28.0697 171.3 28.976 169.764C29.5544 168.784 30.0351 167.549 30.0442 167.02ZM96.3848 124.641C82.7496 122.943 72.1729 117.151 66.6921 108.38C60.5713 98.5858 56.5112 76.91 57.3989 58.7667C57.8275 50.0056 58.3651 48.1098 63.5473 37.084C75.41 11.8443 90.9021 1.0459 115.25 1.0459C137.838 1.0459 152.119 7.61851 160.857 22.0369C177.416 49.3591 174.995 82.564 154.855 104.365C138.668 121.887 121.652 127.788 96.3848 124.641ZM93.7846 89.2664C95.8651 87.2336 123.71 53.5817 130.686 44.6693C132.622 42.1959 134.206 39.6563 134.206 39.0255C134.206 37.2609 130.06 33.1261 128.29 33.1261C127.423 33.1261 117.416 44.3542 106.051 58.0773C84.9039 83.6128 82.7994 87.2001 87.2863 90.0623C90.0007 91.7939 91.3693 91.6263 93.7846 89.2664ZM139.156 86.357C139.784 84.1902 138.728 82.555 132.992 76.8138C129.184 73.0033 124.425 68.4536 122.415 66.7034L118.761 63.5212L115.545 67.4632L112.329 71.4052L115.402 74.9501C119.268 79.409 130.957 89.6134 133.121 90.4189C135.459 91.289 138.276 89.3926 139.156 86.357ZM104.976 55.404C106.096 53.9336 107.029 52.15 107.049 51.4404C107.098 49.6844 92.4538 34.3143 90.7317 34.3143C88.7305 34.3143 85.3878 37.941 85.3878 40.1123C85.3878 42.4073 99.4046 58.0773 101.457 58.0773C102.273 58.0773 103.856 56.8743 104.976 55.404ZM319.637 114.756C306.5 110.654 295.361 99.0201 289.105 82.8668C286.854 77.0542 286.636 74.665 286.632 55.701C286.625 35.2924 286.684 34.7715 289.75 27.501C293.328 19.0175 300.473 11.0446 308.45 6.6346C316.659 2.09663 324.524 0.661084 337.759 1.28497C348.3 1.78179 350.26 2.23781 356.284 5.59503C368.541 12.4256 379.505 25.2944 385.308 39.661C388.27 46.9933 390.788 67.3748 389.884 76.6938C387.86 97.553 380.424 107.291 362.156 113.007C352.773 115.943 326.852 117.01 319.637 114.756ZM363.975 75.662C366.723 72.6525 365.267 68.884 358.255 60.8566L351.233 52.818L347.949 56.264C346.143 58.1594 344.665 60.3273 344.665 61.0817C344.665 63.3149 358.4 77.0878 360.627 77.0878C361.753 77.0878 363.259 76.4462 363.975 75.662ZM335.669 68.0036C337.335 65.6212 343.697 57.7348 349.806 50.4783C355.915 43.2218 360.919 36.3872 360.926 35.2902C360.941 32.6681 358.036 29.5616 355.567 29.5616C353.303 29.5616 330.99 55.9081 327.509 62.6912C325.414 66.7746 325.357 67.3962 326.863 69.752C329.269 73.5136 332.226 72.9265 335.669 68.0036ZM335.113 47.7557C336.787 45.9997 338.156 44.1671 338.156 43.6832C338.156 42.3805 325.68 34.3143 323.665 34.3143C321.15 34.3143 318.22 39.6667 319.435 42.0427C320.499 44.1254 329.382 50.9351 331.045 50.9433C331.609 50.9457 333.44 49.5117 335.113 47.7557Z" fill="#6D5D5D"/>
<path d="M415.723 270.05C413.933 269.775 410.358 269.248 407.779 268.88C401.45 267.975 398.907 264.978 398.907 258.427C398.907 255.566 398.297 252.699 397.551 252.057C395.181 250.013 388.313 249.395 354.042 248.139C328.87 247.217 320.193 247.253 319.056 248.287C318.225 249.042 317.544 251.432 317.544 253.597C317.544 260.376 315.871 263.383 311.355 264.714C309.091 265.382 290.884 266.5 270.896 267.2C250.908 267.899 230.33 268.795 225.167 269.19C216.098 269.884 215.685 269.803 212.963 266.822C210.622 264.258 210.145 262.645 210.145 257.292C210.145 252.947 209.602 250.356 208.479 249.334C206.361 247.409 137.801 248.77 135.588 250.781C134.828 251.472 134.206 253.333 134.206 254.916C134.206 256.499 133.008 259.107 131.543 260.711L128.88 263.628L85.1661 263.544C61.1232 263.498 40.5315 263.065 39.4065 262.581C38.2816 262.097 36.5703 259.863 35.6036 257.615C33.9066 253.669 33.5844 253.502 26.2581 252.764C18.0564 251.938 13.8295 250.728 8.84322 247.779C2.28857 243.903 2.33996 243.995 4.26051 239.651C6.15457 235.367 20.21 187.877 23.0104 176.298C26.5108 161.826 27.7711 157.153 29.7391 151.347L31.753 145.406L46.1125 145.075C61.8239 144.712 60.9749 144.395 67.2231 152.943C69.0994 155.51 69.5083 155.544 94.7691 155.23C122.751 154.882 120.708 155.438 123.417 147.44C124.144 145.291 125.727 142.954 126.934 142.247C130.29 140.28 181.12 139.583 209.536 141.115C235.726 142.526 239.436 143.426 239.436 148.362C239.436 149.631 240.29 151.152 241.334 151.742C243.618 153.034 306.533 156.106 310.177 155.104C312.07 154.584 313.058 153.079 313.981 149.31C316.24 140.081 316.605 140.016 351.717 142.527C368.423 143.721 386.844 144.725 392.651 144.756L403.21 144.812L405.771 150.456C408.284 155.994 410.529 163.109 415.107 180.038C417.869 190.251 422.59 209.156 423.817 214.913C424.305 217.201 425.193 220.676 425.792 222.636C426.39 224.597 427.466 229.409 428.183 233.33C429.736 241.816 434.297 259.116 436.394 264.474C437.388 267.013 437.513 268.544 436.77 269.047C435.371 269.994 420.098 270.722 415.723 270.05V270.05ZM430.368 252.51C430.368 248.91 415.522 191.757 413.444 187.354C411.541 183.324 410.805 183.237 407.848 186.695C403.875 191.34 385.889 228.419 385.889 231.964C385.889 234.265 389.294 235.077 399.032 235.096C410.317 235.119 413.01 237.32 413.01 246.524C413.01 254.188 414.194 255.115 424.13 255.235C429.979 255.306 430.368 255.136 430.368 252.51ZM266.989 250.56C268.323 249.098 267.175 245.177 257.77 219.072C248.504 193.351 246.001 188.264 242.382 187.803C240.029 187.504 238.081 188.832 232.83 194.319C225.521 201.954 205.463 228.322 204.912 231.019C204.633 232.388 206.09 232.736 212.115 232.736C222.095 232.736 224.345 234.614 225.012 243.505C225.81 254.157 224.039 253.399 246.163 252.558C257.551 252.126 266.328 251.284 266.989 250.56ZM304.175 241.695C304.935 237.478 306.251 233.974 307.429 233.03C308.957 231.807 314.665 231.503 332.457 231.699C345.134 231.838 355.849 231.577 356.268 231.118C358.841 228.299 341.862 184.575 336.891 181.22C335.594 180.345 334.588 180.451 333.329 181.596C327.49 186.903 293.982 245.836 295.387 248.327C295.752 248.974 297.592 249.34 299.475 249.14C302.729 248.794 302.962 248.424 304.175 241.695ZM69.6428 247.02C70.4386 245.61 57.3226 206.905 52.1194 195.309C50.0668 190.734 47.4646 185.967 46.3368 184.715C44.318 182.474 44.2358 182.498 41.0631 186.218C34.7845 193.579 18.1898 232.091 20.3003 234.402C20.9384 235.101 26.4468 235.948 32.541 236.284C38.6353 236.619 44.1942 237.301 44.8941 237.799C45.5941 238.297 46.5058 240.435 46.9202 242.552C47.3346 244.668 47.8891 246.801 48.1525 247.291C48.867 248.62 68.8821 248.368 69.6428 247.02V247.02ZM117.301 247.15C119.833 246.55 120.775 245.386 122.006 241.336C122.854 238.551 124.358 235.818 125.35 235.261C126.343 234.704 137.878 233.9 150.984 233.473C164.091 233.046 175.226 232.246 175.73 231.694C177.339 229.932 159.689 189.49 152.979 179.566C148.323 172.68 145.352 174.409 133.25 191.045C120.759 208.218 97.0947 245.631 97.8629 246.992C98.5855 248.273 112.104 248.382 117.301 247.15V247.15ZM286.95 230.656C298.978 211.098 314.29 181.409 314.29 177.645C314.29 176.719 312.947 175.59 311.306 175.136C308.542 174.37 275.342 172.273 264.52 172.18L259.772 172.14L260.307 177.783C260.601 180.888 264.574 194.025 269.135 206.977C278.143 232.556 280.18 237.488 281.732 237.488C282.291 237.488 284.639 234.414 286.95 230.656V230.656ZM101.542 210.755C113.966 191.583 121.188 178.746 121.188 175.835C121.188 174.091 64.1305 173.964 63.1476 175.706C62.7783 176.361 63.7722 181.574 65.3564 187.291C68.4886 198.594 80.6238 232.372 82.4546 234.883C84.0759 237.107 86.2273 234.387 101.542 210.755V210.755ZM375.58 216.782C380.917 207.644 397.823 169.984 397.823 167.232C397.823 165.97 397.212 164.717 396.467 164.448C393.093 163.235 357.908 161.534 354.971 162.443C352.008 163.361 351.746 163.848 352.047 167.901C352.371 172.264 362.863 206.455 367.293 217.587C368.529 220.691 370.051 223.23 370.676 223.23C371.302 223.23 373.508 220.329 375.58 216.782ZM198.272 212.462C212.132 195.34 229.623 171.487 229.647 169.674C229.689 166.569 225.107 162.856 219.555 161.493C211.821 159.595 164.318 159.342 163.754 161.196C162.781 164.392 187.595 220.854 189.973 220.854C190.801 220.854 194.536 217.078 198.272 212.462V212.462ZM30.0444 167.02C30.0536 166.491 29.5728 166.389 28.9762 166.793C28.3795 167.197 27.8988 168.431 27.9079 169.537C27.9224 171.268 28.0699 171.299 28.9762 169.764C29.5546 168.783 30.0353 167.549 30.0444 167.02ZM96.385 123.452C83.7849 121.883 72.6211 116.261 68.3734 109.346C61.8472 98.7205 58.9941 85.4397 58.891 65.2059L58.8094 49.1658L63.5576 39.0665C69.7469 25.9022 75.3913 18.2365 83.4029 12.1138C92.4729 5.18243 98.1255 3.26303 111.565 2.5511C125.336 1.8216 135.236 3.48153 144.474 8.06915C152.368 11.9897 157.533 17.2929 162.059 26.1244C175.753 52.8514 172.915 83.098 154.818 103.283C148.131 110.742 136.35 118.878 128.213 121.657C121.51 123.946 106.945 124.768 96.385 123.452H96.385ZM93.7848 89.266C95.8653 87.2333 123.71 53.5814 130.686 44.6689C132.622 42.1956 134.206 39.6559 134.206 39.0251C134.206 37.2605 130.06 33.1257 128.29 33.1257C127.423 33.1257 117.416 44.3538 106.051 58.077C84.9041 83.6125 82.7996 87.1997 87.2865 90.062C90.0009 91.7935 91.3695 91.6259 93.7848 89.266ZM139.156 86.3566C139.784 84.1898 138.728 82.5546 132.992 76.8135C129.185 73.0029 124.425 68.4532 122.415 66.703L118.761 63.5208L115.545 67.4629L112.329 71.4049L115.402 74.9497C119.268 79.4087 130.957 89.613 133.121 90.4185C135.459 91.2887 138.276 89.3923 139.156 86.3566ZM104.976 55.4036C106.096 53.9333 107.029 52.1497 107.049 51.44C107.098 49.6841 92.454 34.3139 90.7319 34.3139C88.7307 34.3139 85.388 37.9407 85.388 40.1119C85.388 42.4069 99.4048 58.077 101.458 58.077C102.273 58.077 103.856 56.874 104.976 55.4036ZM320.356 113.864C309.45 110.848 297.914 100.028 292.431 87.6725C287.901 77.4634 286.826 69.7546 287.373 51.3889C287.816 36.5076 288.16 34.1875 290.918 27.485C295.893 15.3921 306.344 6.69703 319.86 3.40562C323.674 2.47669 330.403 2.126 337.759 2.47273C348.373 2.97301 350.236 3.41235 356.465 6.88257C367.956 13.2852 379.43 26.9859 384.655 40.5435C387.255 47.2911 389.636 68.0639 388.799 76.6935C386.79 97.3984 380.115 106.199 362.156 111.819C353.782 114.439 327.147 115.742 320.356 113.864ZM363.976 75.6616C366.723 72.6521 365.267 68.8836 358.255 60.8563L351.234 52.8176L347.949 56.2637C346.143 58.159 344.665 60.3269 344.665 61.0813C344.665 63.3145 358.4 77.0875 360.627 77.0875C361.753 77.0875 363.26 76.4459 363.976 75.6616ZM335.669 68.0032C337.335 65.6208 343.697 57.7345 349.806 50.478C355.916 43.2214 360.92 36.3868 360.926 35.2899C360.941 32.6678 358.036 29.5613 355.568 29.5613C353.304 29.5613 330.99 55.9077 327.509 62.6908C325.414 66.7742 325.357 67.3958 326.864 69.7516C329.269 73.5132 332.226 72.9262 335.669 68.0032ZM335.114 47.7554C336.787 45.9994 338.156 44.1668 338.156 43.6829C338.156 42.3802 325.68 34.3139 323.665 34.3139C321.151 34.3139 318.221 39.6664 319.435 42.0424C320.499 44.1251 329.382 50.9347 331.045 50.943C331.609 50.9453 333.44 49.5113 335.114 47.7554Z" fill="#B33C32"/>
<path d="M415.723 270.05C413.933 269.775 410.358 269.248 407.779 268.88C401.45 267.975 398.907 264.978 398.907 258.427C398.907 255.566 398.297 252.699 397.551 252.057C395.181 250.013 388.313 249.395 354.042 248.139C328.87 247.217 320.193 247.253 319.056 248.287C318.225 249.042 317.544 251.432 317.544 253.597C317.544 260.376 315.871 263.383 311.355 264.714C309.091 265.382 290.884 266.5 270.896 267.2C250.908 267.899 230.33 268.795 225.167 269.19C216.098 269.884 215.685 269.803 212.963 266.822C210.622 264.258 210.145 262.645 210.145 257.292C210.145 252.947 209.602 250.356 208.479 249.334C206.361 247.409 137.801 248.77 135.588 250.781C134.828 251.472 134.206 253.333 134.206 254.916C134.206 256.499 133.008 259.107 131.543 260.711L128.88 263.628L85.1661 263.544C61.1232 263.498 40.5315 263.065 39.4065 262.581C38.2816 262.097 36.5703 259.863 35.6036 257.615C33.9066 253.669 33.5844 253.502 26.2581 252.764C18.0564 251.938 13.8295 250.728 8.84322 247.779C2.28857 243.903 2.33996 243.995 4.26051 239.651C6.15457 235.367 20.21 187.877 23.0104 176.298C26.5108 161.826 27.7711 157.153 29.7391 151.347L31.753 145.406L46.1125 145.075C61.8239 144.712 60.9749 144.395 67.2231 152.943C69.0994 155.51 69.5083 155.544 94.7691 155.23C122.751 154.882 120.708 155.438 123.417 147.44C124.144 145.291 125.727 142.954 126.934 142.247C130.29 140.28 181.12 139.583 209.536 141.115C235.726 142.526 239.436 143.426 239.436 148.362C239.436 149.631 240.29 151.152 241.334 151.742C243.618 153.034 306.533 156.106 310.177 155.104C312.07 154.584 313.058 153.079 313.981 149.31C316.24 140.081 316.605 140.016 351.717 142.527C368.423 143.721 386.844 144.725 392.651 144.756L403.21 144.812L405.771 150.456C408.284 155.994 410.529 163.109 415.107 180.038C417.869 190.251 422.59 209.156 423.817 214.913C424.305 217.201 425.193 220.676 425.792 222.636C426.39 224.597 427.466 229.409 428.183 233.33C429.736 241.816 434.297 259.116 436.394 264.474C437.388 267.013 437.513 268.544 436.77 269.047C435.371 269.994 420.098 270.722 415.723 270.05V270.05ZM430.506 262.851C432.018 260.857 430.829 260.411 421.456 259.456C416.853 258.987 412.353 257.996 411.457 257.254C410.498 256.461 409.477 252.723 408.977 248.182L408.127 240.459L403.246 239.656C400.561 239.214 395.282 238.813 391.513 238.765C382.683 238.651 380.035 237.185 380.979 232.935C381.367 231.192 387.824 216.175 395.329 199.564C410.644 165.667 409.838 169.931 403.791 154.847L401.384 148.841L377.093 147.398C363.733 146.605 345.476 145.62 336.522 145.211C318.509 144.387 318.861 144.265 316.545 152.143C315.84 154.542 314.572 157.132 313.727 157.9C312.548 158.972 303.7 158.868 275.676 157.449C255.593 156.433 238.857 155.274 238.485 154.874C238.113 154.474 237.284 152.471 236.643 150.423C235.812 147.768 234.567 146.461 232.304 145.869C226.27 144.291 169.393 142.598 149.569 143.406C130.401 144.189 129.598 144.321 127.601 147.023C126.46 148.566 125.527 151.04 125.527 152.521C125.527 157.834 123.484 158.331 99.454 158.863C87.0185 159.137 74.1153 158.989 70.7801 158.533C65.1394 157.761 64.5851 157.398 62.841 153.337L60.9661 148.971L47.9667 148.634C36.6866 148.341 34.7864 148.567 33.599 150.346C31.5804 153.369 31.9338 156.43 34.4004 157.288C38.033 158.551 36.99 162.734 28.2838 181.819C20.5953 198.673 17.5987 207.126 11.0761 230.359C9.70013 235.26 8.25491 240.137 7.86449 241.196C6.96482 243.637 7.96354 244.046 22.3205 247.109C30.3629 248.824 36.5204 251.018 42.6469 254.352L51.4359 259.133L75.7346 259.469C89.0989 259.653 105.824 259.512 112.902 259.154L125.771 258.503L129.382 252.321C133.9 244.587 133.61 244.647 166.12 244.63C179.794 244.624 194.049 244.032 197.798 243.317C207.383 241.489 211.836 243.21 214.567 249.797C215.689 252.503 216.617 255.854 216.63 257.244C216.682 262.795 218.122 263.022 251.247 262.704C268.319 262.54 288.064 262.075 295.124 261.67C306.974 260.991 308.154 260.707 310.466 257.976C311.843 256.349 313.263 253.014 313.62 250.566C313.978 248.117 314.973 245.475 315.832 244.695C317.66 243.033 372.266 243.96 388.573 245.931C400.166 247.331 402.162 248.802 402.162 255.943C402.162 263.734 404.163 264.723 419.334 264.433C425.522 264.314 429.863 263.7 430.506 262.851V262.851ZM222.295 255.073C221.56 254.268 220.993 250.409 220.993 246.204C220.993 237.094 219.407 235.65 210.708 236.84C207.583 237.268 203.737 237.263 202.161 236.83C196.28 235.213 198.201 231.668 221.445 201.249C236.738 181.236 241.602 175.704 243.905 175.704C245.206 175.704 246.819 177.681 248.509 181.347C253.445 192.06 272.111 248.352 271.773 251.505C271.542 253.657 270.599 254.876 268.726 255.442C263.719 256.955 223.723 256.637 222.295 255.072V255.073ZM266.989 250.56C268.323 249.098 267.175 245.177 257.77 219.072C248.504 193.351 246.001 188.264 242.382 187.803C240.029 187.504 238.081 188.832 232.83 194.319C225.521 201.954 205.463 228.322 204.912 231.019C204.633 232.388 206.09 232.736 212.115 232.736C222.095 232.736 224.345 234.614 225.012 243.505C225.81 254.157 224.039 253.399 246.163 252.558C257.551 252.126 266.328 251.284 266.989 250.56ZM294.233 253.134C289.934 252.057 289.712 249.645 293.215 242.04C297.136 233.525 317.028 197.31 326.878 180.754C335.628 166.048 337.835 164.526 340.924 171.069C344.071 177.734 362.023 229.723 362.023 232.172C362.023 232.389 361.256 233.406 360.318 234.433C358.868 236.021 354.916 236.3 333.855 236.3C306.386 236.3 307.781 235.862 307.781 244.487C307.781 246.923 307.169 249.832 306.421 250.952C304.868 253.278 299.004 254.328 294.233 253.134ZM304.175 241.695C304.935 237.478 306.251 233.974 307.429 233.03C308.957 231.807 314.665 231.503 332.457 231.699C345.134 231.838 355.849 231.577 356.268 231.118C358.841 228.299 341.862 184.575 336.891 181.22C335.594 180.345 334.588 180.451 333.329 181.596C327.49 186.903 293.982 245.836 295.387 248.327C295.752 248.974 297.592 249.34 299.475 249.14C302.729 248.794 302.962 248.424 304.175 241.695ZM46.3735 251.869C45.5004 251.225 44.2657 248.662 43.6298 246.173L42.4736 241.647L31.2185 240.657C18.5899 239.546 14.8732 238.412 14.8732 235.668C14.8732 231.039 38.8126 175.237 42.6284 170.972C46.27 166.901 48.7373 171.981 63.1746 213.274C73.7595 243.549 74.7728 247.378 72.9295 250.139C71.7228 251.947 69.5894 252.355 59.7256 252.667C53.1803 252.874 47.2566 252.52 46.3735 251.869ZM69.6428 247.02C70.4386 245.61 57.3226 206.905 52.1194 195.309C50.0668 190.734 47.4646 185.967 46.3368 184.715C44.318 182.474 44.2358 182.498 41.0631 186.218C34.7845 193.579 18.1898 232.091 20.3003 234.402C20.9384 235.101 26.4468 235.948 32.541 236.284C38.6353 236.619 44.1942 237.301 44.8941 237.799C45.5941 238.297 46.5058 240.435 46.9202 242.552C47.3346 244.668 47.8891 246.801 48.1525 247.291C48.867 248.62 68.8821 248.368 69.6428 247.02V247.02ZM93.7524 251.577C92.7319 250.952 91.897 249.769 91.897 248.948C91.897 247.066 101.971 230.79 123.998 197.083C145.401 164.331 147.495 161.615 150.037 163.3C153.09 165.324 180.854 227.738 180.854 232.579C180.854 233.832 180 235.277 178.956 235.79C177.911 236.302 165.933 237.028 152.336 237.402C125.331 238.145 126.221 237.882 124.874 245.541C124.498 247.682 123.392 249.883 122.418 250.431C119.737 251.94 95.8988 252.893 93.7524 251.577ZM117.301 247.15C119.833 246.55 120.775 245.386 122.006 241.336C122.854 238.551 124.358 235.818 125.35 235.261C126.343 234.704 137.878 233.9 150.984 233.473C164.091 233.046 175.226 232.246 175.73 231.694C177.339 229.932 159.689 189.49 152.979 179.566C148.323 172.68 145.352 174.409 133.25 191.045C120.759 208.218 97.0947 245.631 97.8629 246.992C98.5855 248.273 112.104 248.382 117.301 247.15V247.15ZM277 238.973C274.045 232.587 259.744 193.166 255.066 178.515C250.935 165.577 251.36 165.011 265.2 165.011C281.377 165.011 317.828 167.378 320.528 168.604C321.87 169.214 322.968 170.554 322.968 171.583C322.968 173.846 313.39 192.192 298.795 217.884C285.969 240.462 283.229 244.617 281.165 244.617C280.311 244.617 278.436 242.077 277 238.973ZM286.95 230.656C298.978 211.098 314.29 181.409 314.29 177.645C314.29 176.719 312.947 175.59 311.306 175.136C308.542 174.37 275.342 172.273 264.52 172.181L259.772 172.14L260.307 177.783C260.601 180.888 264.574 194.025 269.135 206.978C278.143 232.556 280.18 237.488 281.732 237.488C282.291 237.488 284.639 234.414 286.95 230.656V230.656ZM80.6592 240.05C78.7291 237.714 62.2367 193.282 58.1827 179.496C56.8498 174.963 56.0665 170.377 56.4422 169.305C57.0595 167.543 60.5969 167.385 93.2247 167.668L129.324 167.981L129.669 170.64C129.908 172.483 125.78 179.953 116.208 194.997C93.8681 230.11 85.4206 242.241 83.3089 242.241C82.8474 242.241 81.655 241.255 80.6592 240.05V240.05ZM101.542 210.755C113.966 191.583 121.188 178.746 121.188 175.835C121.188 174.091 64.1305 173.964 63.1476 175.706C62.7783 176.361 63.7722 181.574 65.3564 187.291C68.4886 198.594 80.6238 232.372 82.4546 234.883C84.0759 237.107 86.2273 234.387 101.542 210.755V210.755ZM367.727 226.498C364.828 223.08 359.209 208.132 352.385 185.683C345.956 164.532 345.012 159.694 346.845 157.275C348.439 155.172 367.586 154.884 388.411 156.65C402.425 157.838 404.855 158.958 403.787 163.735C401.713 173.009 379.526 220.147 374.362 226.25C371.32 229.845 370.59 229.873 367.727 226.498V226.498ZM375.58 216.782C380.917 207.644 397.823 169.984 397.823 167.232C397.823 165.97 397.212 164.717 396.467 164.449C393.093 163.235 357.908 161.534 354.971 162.443C352.008 163.361 351.746 163.848 352.047 167.901C352.371 172.264 362.863 206.456 367.293 217.587C368.529 220.691 370.051 223.23 370.676 223.23C371.302 223.23 373.508 220.329 375.58 216.782ZM186.533 225.31C182.715 220.134 156.988 159.427 156.988 155.594C156.988 153.96 157.933 152.915 159.902 152.374C164.31 151.162 225.247 152.996 227.665 154.413C228.812 155.085 230.035 157.194 230.383 159.1C230.77 161.224 231.91 162.87 233.327 163.354C236.511 164.441 237.324 166.226 235.949 169.105C234.525 172.086 211.723 202.14 200.067 216.399C191.813 226.496 188.848 228.448 186.533 225.31ZM198.272 212.463C212.132 195.34 229.623 171.487 229.647 169.674C229.689 166.569 225.107 162.856 219.555 161.493C211.821 159.595 164.318 159.342 163.754 161.196C162.781 164.392 187.595 220.854 189.973 220.854C190.801 220.854 194.536 217.078 198.272 212.462V212.463ZM430.368 252.51C430.368 248.91 415.522 191.757 413.444 187.354C411.541 183.324 410.805 183.237 407.848 186.695C403.875 191.34 385.889 228.419 385.889 231.964C385.889 234.265 389.294 235.077 399.032 235.096C410.317 235.119 413.01 237.32 413.01 246.524C413.01 254.188 414.194 255.115 424.13 255.235C429.979 255.306 430.368 255.136 430.368 252.51ZM30.0444 167.02C30.0536 166.491 29.5728 166.389 28.9762 166.793C28.3795 167.197 27.8988 168.431 27.9079 169.537C27.9224 171.268 28.0699 171.299 28.9762 169.764C29.5546 168.783 30.0353 167.549 30.0444 167.02ZM96.385 123.452C83.7849 121.883 72.6211 116.261 68.3734 109.346C61.8472 98.7205 58.9941 85.4397 58.891 65.2059L58.8094 49.1658L63.5576 39.0665C69.7469 25.9022 75.3913 18.2365 83.4029 12.1138C92.4729 5.18243 98.1255 3.26303 111.565 2.5511C125.336 1.8216 135.236 3.48153 144.474 8.06915C152.368 11.9897 157.533 17.2929 162.059 26.1244C175.753 52.8514 172.915 83.098 154.818 103.283C148.131 110.742 136.35 118.878 128.213 121.657C121.51 123.946 106.945 124.768 96.385 123.452H96.385ZM128.808 111.031C137.938 106.968 151.223 97.648 154.137 93.262C155.488 91.2276 157.523 87.1571 158.659 84.2164C159.794 81.2757 162.429 76.1963 164.513 72.9289C167.897 67.6245 168.286 66.2245 168.141 59.8592C167.986 53.0849 163.479 36.4322 159.519 28.0051C157.092 22.8425 150.584 15.4714 145.663 12.3129C139.267 8.20722 127.712 5.62263 115.615 5.59128C91.6844 5.5293 78.7329 14.6741 67.3639 39.6606C60.3167 55.1488 59.2312 63.0268 61.9096 79.2491L63.5415 89.1338L70.829 96.4773C79.9248 105.643 82.2802 107.364 89.1278 109.846C96.293 112.444 103.522 113.59 113.887 113.772C120.53 113.889 123.691 113.308 128.808 111.031ZM96.7788 105.748C94.9888 105.234 92.0531 103.973 90.255 102.946C85.7572 100.379 76.3608 89.2672 73.5077 83.1419C69.8774 75.3484 66.757 60.646 67.5575 55.1066C70.5224 34.5904 92.7964 13.422 112.907 12.0085C125.689 11.1101 130.622 13.4706 141.859 25.8623C154.697 40.0194 157.53 46.4925 157.53 61.6694C157.53 72.052 157.237 73.6359 153.978 80.8839C149.518 90.8025 140.967 99.6543 132.304 103.322C127.375 105.408 123.344 106.037 113.051 106.323C105.892 106.521 98.5688 106.263 96.7788 105.748ZM129.595 99.1268C134.012 97.1164 135.713 94.9097 132.845 94.9097C132.097 94.9097 126.944 91.3923 121.394 87.0933L111.304 79.2768L108.408 81.3553C106.814 82.4985 103.279 85.7208 100.55 88.5159C97.822 91.3111 94.1486 94.2263 92.3873 94.9941L89.1849 96.3902L92.9359 98.1303C99.1893 101.031 104.984 101.925 115.221 101.567C121.452 101.349 126.653 100.466 129.595 99.1268ZM93.7848 89.266C95.8653 87.2333 123.71 53.5814 130.686 44.6689C132.622 42.1956 134.206 39.6559 134.206 39.0251C134.206 37.2605 130.06 33.1257 128.29 33.1257C127.423 33.1257 117.416 44.3538 106.051 58.077C84.9041 83.6125 82.7996 87.1997 87.2865 90.062C90.0009 91.7935 91.3695 91.6259 93.7848 89.266ZM139.156 86.3566C139.784 84.1898 138.728 82.5546 132.992 76.8135C129.185 73.0029 124.425 68.4532 122.415 66.703L118.761 63.5208L115.545 67.4629L112.329 71.4049L115.402 74.9497C119.268 79.4087 130.957 89.613 133.121 90.4185C135.459 91.2887 138.276 89.3923 139.156 86.3566ZM149.95 77.5411C151.448 74.0737 152.971 68.1089 153.336 64.286C153.917 58.1958 153.614 56.4708 150.883 50.3528C145.095 37.3845 131.105 24.2453 120.645 21.9535C115.486 20.823 101.495 23.0597 95.6316 25.9521C90.726 28.3721 90.4522 28.7141 92.4145 29.9704C93.5941 30.7256 97.7828 34.6852 101.723 38.7694C105.662 42.8537 109.357 46.1954 109.934 46.1954C110.51 46.1954 114.042 42.4528 117.781 37.8783C123.975 30.3007 124.953 29.5613 128.772 29.5613C132.008 29.5613 133.476 30.2748 135.212 32.6919C139.026 38.0019 138.17 41.6093 130.97 50.5826C127.401 55.0313 124.487 59.4731 124.495 60.4533C124.515 62.7414 127.709 66.6056 136.131 74.5316C141.673 79.7472 142.885 81.5383 142.885 84.5181C142.885 88.0746 142.929 88.105 145.056 85.9973C146.25 84.8138 148.452 81.0085 149.95 77.5411ZM90.9529 70.2121C94.4555 66.1039 97.3212 62.3469 97.3212 61.8631C97.3212 61.3794 93.923 57.2903 89.7696 52.7762C85.2746 47.8909 81.9397 43.1813 81.5305 41.1412C80.8838 37.9163 80.7269 37.8289 78.8765 39.6629C77.7949 40.7351 75.8299 44.3618 74.51 47.7223C72.598 52.5901 72.2234 55.2904 72.6677 61.0043C73.2595 68.6156 75.84 78.2231 78.5382 82.8608L80.1689 85.6638L82.3767 81.6727C83.591 79.4775 87.4503 74.3203 90.9529 70.2121ZM104.976 55.4036C106.096 53.9333 107.029 52.1497 107.049 51.44C107.098 49.6841 92.454 34.3139 90.7319 34.3139C88.7307 34.3139 85.388 37.9407 85.388 40.1119C85.388 42.4069 99.4048 58.077 101.458 58.077C102.273 58.077 103.856 56.874 104.976 55.4036ZM320.356 113.864C309.45 110.848 297.914 100.028 292.431 87.6725C287.901 77.4634 286.826 69.7546 287.373 51.3889C287.816 36.5076 288.16 34.1875 290.918 27.485C295.893 15.3921 306.344 6.69703 319.86 3.40562C323.674 2.47669 330.403 2.126 337.759 2.47273C348.373 2.97301 350.236 3.41235 356.465 6.88257C367.956 13.2852 379.43 26.9859 384.655 40.5435C387.255 47.2911 389.636 68.0639 388.799 76.6935C386.79 97.3984 380.115 106.199 362.156 111.819C353.782 114.439 327.147 115.742 320.356 113.864ZM351.084 95.3496C351.332 95.1078 349.731 94.9097 347.524 94.9097C341.866 94.9097 331.004 90.6524 325.383 86.2314C313.271 76.7047 304.894 56.0014 305.807 37.8518C306.253 28.9794 308.634 24.3522 315.596 18.8284C324.698 11.6074 342.715 10.9829 354.75 17.4715C363.282 22.0719 372.98 32.8803 376.821 42.0695C383.064 57.0037 380.564 74.7164 370.686 85.5349C364.431 92.3856 365.207 93.0792 372.399 87.0664C375.214 84.713 379.279 82.1247 381.432 81.3145C384.923 80.001 385.456 79.2367 386.35 74.2608C387.083 70.1835 386.878 65.7454 385.59 57.7848C383.149 42.7005 377.835 31.2305 368.623 21.1574C356.481 7.88094 344.116 3.34041 326.522 5.6974C307.081 8.30197 294.759 19.3457 290.814 37.7031C289.33 44.609 288.813 63.5125 290.015 66.9416C290.386 68.0031 292.558 69.9147 294.839 71.1896C297.121 72.4646 300.45 75.8342 302.236 78.6777C307.979 87.8204 316.169 94.3993 324.053 96.2035C327.615 97.0186 350.099 96.3083 351.084 95.3496ZM358.474 94.192C358.114 93.7971 357.178 93.7549 356.395 94.0983C355.53 94.4776 355.787 94.7591 357.051 94.8162C358.194 94.8677 358.835 94.5868 358.474 94.1921V94.192ZM360.938 85.8065C373.88 79.9759 379.648 58.7577 372.307 43.9851C370.652 40.6551 368.416 37.0568 367.339 35.9889C365.505 34.171 365.337 34.2354 364.704 36.9981C364.332 38.6211 362.112 41.9976 359.771 44.5015C357.429 47.0054 355.514 49.5225 355.514 50.095C355.514 50.6675 358.687 55.1208 362.565 59.9911C367.279 65.9104 369.617 69.8488 369.617 71.8701C369.617 75.2705 364.275 81.8401 361.51 81.8401C358.809 81.8401 354.225 78.8776 350.776 74.9035C349.065 72.9322 346.26 70.6818 344.542 69.9026C341.648 68.5899 341.092 68.8092 336.971 72.8868C331.863 77.9412 328.489 77.9229 324.325 72.818C321.335 69.1537 321.231 64.4053 324.053 60.4534C326.166 57.4957 326.959 53.3245 325.409 53.3245C324.961 53.3245 322.52 51.2476 319.985 48.7091C316.295 45.0151 315.375 43.289 315.375 40.0623C315.375 35.0577 317.703 31.2618 321.394 30.247C324.315 29.4441 326.297 30.2672 335.12 35.9434L340.221 39.2249L345.676 32.908C348.677 29.4336 351.141 26.2314 351.153 25.792C351.21 23.6561 342.915 22.2206 335.071 23.0087C325.603 23.9599 322.087 25.8815 315.506 33.7012C311.552 38.3997 311.035 39.6781 311.035 44.7652C311.035 64.9797 324.872 84.6402 341.324 87.8027C347.383 88.9672 355.831 88.1075 360.938 85.8066L360.938 85.8065ZM363.976 75.6616C366.723 72.6521 365.267 68.8836 358.255 60.8563L351.234 52.8176L347.949 56.2637C346.143 58.159 344.665 60.3269 344.665 61.0813C344.665 63.3145 358.4 77.0875 360.627 77.0875C361.753 77.0875 363.26 76.4459 363.976 75.6616ZM335.669 68.0032C337.335 65.6208 343.697 57.7345 349.806 50.478C355.916 43.2214 360.92 36.3868 360.926 35.2899C360.941 32.6678 358.036 29.5613 355.568 29.5613C353.304 29.5613 330.99 55.9077 327.509 62.6908C325.414 66.7742 325.357 67.3958 326.864 69.7516C329.269 73.5132 332.226 72.9262 335.669 68.0032ZM335.114 47.7554C336.787 45.9994 338.156 44.1668 338.156 43.6829C338.156 42.3802 325.68 34.3139 323.665 34.3139C321.151 34.3139 318.221 39.6664 319.435 42.0424C320.499 44.1251 329.382 50.9347 331.045 50.943C331.609 50.9453 333.44 49.5113 335.114 47.7554Z" fill="#8F3129"/>
<path d="M415.722 270.05C413.932 269.776 410.358 269.249 407.779 268.88C401.45 267.975 398.907 264.979 398.907 258.427C398.907 255.567 398.297 252.7 397.551 252.057C395.181 250.014 388.313 249.396 354.042 248.14C328.87 247.217 320.193 247.254 319.056 248.287C318.225 249.043 317.544 251.433 317.544 253.597C317.544 260.377 315.871 263.383 311.355 264.715C309.091 265.382 290.884 266.501 270.896 267.2C250.908 267.9 230.33 268.795 225.167 269.19C216.098 269.884 215.685 269.804 212.963 266.822C210.622 264.259 210.145 262.646 210.145 257.293C210.145 252.948 209.602 250.356 208.479 249.335C206.361 247.41 137.801 248.77 135.588 250.781C134.828 251.472 134.206 253.333 134.206 254.917C134.206 256.5 133.008 259.108 131.543 260.712L128.88 263.628L85.1661 263.545C61.1232 263.499 40.5315 263.065 39.4065 262.582C38.2816 262.098 36.5703 259.863 35.6036 257.616C33.9066 253.67 33.5844 253.503 26.2581 252.765C18.0564 251.938 13.8295 250.728 8.84322 247.78C2.28857 243.904 2.33996 243.995 4.26051 239.652C6.15457 235.368 20.21 187.877 23.0104 176.299C26.5108 161.827 27.7711 157.153 29.7391 151.348L31.753 145.407L46.1125 145.075C61.8239 144.712 60.9749 144.396 67.2231 152.944C69.0994 155.51 69.5083 155.544 94.7691 155.231C122.751 154.883 120.708 155.438 123.417 147.441C124.144 145.292 125.727 142.955 126.934 142.248C130.29 140.28 181.12 139.583 209.536 141.115C235.726 142.527 239.436 143.426 239.436 148.363C239.436 149.632 240.29 151.153 241.334 151.743C243.618 153.034 306.533 156.107 310.177 155.105C312.07 154.585 313.058 153.079 313.981 149.31C316.24 140.082 316.605 140.016 351.717 142.527C368.423 143.722 386.844 144.725 392.651 144.756L403.21 144.813L405.771 150.457C408.284 155.995 410.529 163.11 415.107 180.039C417.869 190.252 422.59 209.156 423.817 214.914C424.305 217.201 425.193 220.676 425.792 222.637C427.648 228.721 429.583 239.475 429.104 241.048C428.853 241.873 427.255 236.999 425.552 230.216C419.351 205.509 413.874 186.944 412.174 184.871C410.505 182.835 410.359 182.835 408.545 184.871C406.21 187.491 394.605 209.852 388.996 222.537C383.774 234.347 384.177 235.113 395.624 235.113C405.024 235.113 410.371 236.685 411.948 239.912C412.533 241.107 413.01 244.461 413.01 247.365C413.01 250.268 413.621 253.191 414.366 253.861C416.007 255.333 428.23 256.207 430.007 254.979C430.919 254.349 430.976 252.925 430.209 249.884C429.624 247.563 429.354 245.028 429.61 244.25C429.865 243.472 431.146 246.846 432.456 251.747C433.767 256.648 435.525 262.375 436.363 264.474C437.375 267.007 437.511 268.545 436.77 269.048C435.37 269.995 420.098 270.722 415.722 270.05L415.722 270.05ZM432.951 263.925C432.558 262.128 432.072 260.327 431.869 259.923C431.666 259.518 427.638 258.818 422.917 258.367C418.197 257.916 413.525 256.899 412.535 256.106C411.391 255.19 410.502 252.188 410.094 247.867C409.742 244.129 408.799 240.474 407.998 239.747C407.197 239.019 401.409 238.136 395.135 237.786C387.982 237.386 383.307 236.594 382.601 235.662C381.21 233.826 382.749 229.92 398.387 195.618C411.634 166.561 411.219 169.365 404.503 154.266L401.62 147.783L362.023 145.345C336.075 143.747 321.597 143.295 320.02 144.033C318.476 144.756 316.977 147.258 315.839 151.012C314.863 154.231 313.401 157.143 312.59 157.483C311.104 158.108 261.93 156.089 247.264 154.802C239.463 154.117 239.338 154.053 237.5 149.792C235.956 146.212 234.899 145.333 231.299 144.633C222.769 142.976 170.168 141.53 149.503 142.384C126.14 143.35 126.598 143.174 124.418 152.041C123.43 156.06 122.991 156.427 118.322 157.127C111.858 158.098 72.6086 158.113 68.1982 157.148C66.0673 156.681 64.5833 155.487 64.1373 153.88C62.4307 147.732 61.015 147.19 46.6811 147.19C33.2746 147.19 33.2608 147.192 32.2039 150.237C30.5735 154.934 30.9369 157.546 33.3155 158.227C34.5881 158.592 35.4852 159.848 35.4852 161.265C35.4852 162.595 31.6225 172.135 26.9013 182.467C21.0519 195.267 16.6937 206.928 13.2202 219.073C10.4167 228.875 7.42468 238.113 6.57122 239.602C5.71776 241.091 5.29312 242.794 5.6276 243.387C6.90064 245.643 18.9934 249.608 26.5322 250.241C34.4452 250.906 35.7949 251.673 38.155 256.849C38.7749 258.209 40.8796 259.774 42.8319 260.328C44.7843 260.881 64.9614 261.182 87.6699 260.996C127.098 260.674 129.028 260.555 130.497 258.352C131.344 257.084 132.036 254.609 132.036 252.854C132.036 251.098 132.658 249.096 133.419 248.405C134.29 247.614 148.647 246.835 172.207 246.301C215.379 245.323 212.299 244.487 213.318 257.466L213.942 265.411L243.775 265.029C260.183 264.82 282.084 264.269 292.444 263.806C310.406 263.003 311.374 262.836 313.327 260.194C314.619 258.447 315.375 255.554 315.375 252.355C315.375 249.494 316.027 246.693 316.872 245.925C317.992 244.906 327.2 244.885 353.485 245.839C390.618 247.187 398.54 248.011 400.087 250.686C400.613 251.597 401.059 254.48 401.077 257.094C401.096 259.708 401.511 262.538 402 263.382C403.511 265.991 408.722 266.985 421.439 267.091L433.664 267.193L432.951 263.926V263.925ZM222.737 253.432C222.374 252.398 222.071 248.789 222.062 245.412C222.037 236.354 221.372 235.732 211.538 235.556C200.259 235.354 200.381 235.379 200.381 233.258C200.381 229.461 240.796 176.893 243.716 176.893C245.913 176.893 248.182 182.213 257.84 210.011C266.415 234.689 270.896 248.91 270.896 251.439C270.896 254.825 267.486 255.311 243.755 255.311C226.19 255.311 223.305 255.053 222.737 253.432ZM262.608 252.179C266.633 251.575 267.641 250.961 267.641 249.114C267.641 246.228 262.918 231.577 256.232 213.726C248.079 191.958 245.157 186.398 241.874 186.398C238.192 186.398 204.721 226.752 204.721 231.191C204.721 232.307 206.761 232.736 212.073 232.736C222.196 232.736 224.248 234.433 224.248 242.806C224.248 253.414 223.429 252.935 241.57 252.935C250.373 252.935 259.84 252.595 262.608 252.179ZM295.034 252.044C289.176 251.3 289.441 250.571 307.888 216.605C328.441 178.761 334.762 168.576 337.694 168.576C339.306 168.576 344.624 182.258 354.014 210.563C359.558 227.276 360.776 232.112 359.774 233.435C358.747 234.79 353.739 235.113 333.722 235.113C306.043 235.113 306.696 234.905 306.696 243.719C306.696 250.569 303.18 253.08 295.034 252.044ZM303.224 247.945C303.94 247.16 304.526 244.789 304.526 242.675C304.526 240.561 305.002 237.46 305.584 235.784L306.642 232.736H330.945C350.55 232.736 355.494 232.412 356.519 231.059C358.057 229.029 352.984 213.387 344.057 192.636C339.677 182.454 337.812 179.269 336.23 179.269C333.508 179.269 332.812 180.216 319.587 201.886C306 224.15 294.297 246.396 295.267 248.116C296.23 249.821 301.617 249.705 303.224 247.945V247.945ZM47.1519 250.262C46.1805 249.445 44.9583 246.905 44.4359 244.618L43.4862 240.459L30.8589 239.271C23.9108 238.617 17.6454 237.44 16.9282 236.653C15.9135 235.54 16.0521 233.961 17.5541 229.524C20.7663 220.035 41.4862 174.028 43.2618 172.442C44.6125 171.235 45.232 171.345 46.607 173.036C50.1833 177.433 73.8006 245.813 72.7645 248.77C72.0443 250.825 67.2437 251.747 57.2538 251.747C52.2504 251.747 48.212 251.153 47.1519 250.262ZM69.4163 247.14C71.8403 244.485 49.7563 184.93 45.7185 183.233C41.9672 181.656 34.3057 194.452 24.6797 218.372C20.2124 229.473 19.1935 233.062 20.1509 234.325C20.977 235.415 24.9925 236.173 32.272 236.612C38.2591 236.974 43.8409 237.89 44.6759 238.649C45.511 239.408 46.5078 241.593 46.8911 243.505C47.2744 245.416 48.4042 247.54 49.4017 248.224C51.6442 249.761 67.8226 248.885 69.4163 247.14ZM94.3379 250.929C93.5921 250.616 92.9819 249.678 92.9819 248.843C92.9819 245.369 146.613 163.823 148.898 163.823C151.579 163.823 180.606 229.824 179.417 233.217C178.581 235.602 172.308 236.272 150.479 236.305C127.839 236.34 125.662 236.929 124.16 243.43C123.631 245.717 122.624 248.191 121.922 248.928C120.637 250.276 96.8928 251.998 94.3379 250.929ZM120.584 245.542C121.513 244.089 122.273 241.989 122.273 240.875C122.273 239.761 123.559 237.741 125.131 236.387C127.772 234.112 129.414 233.924 146.676 233.924C167.724 233.924 175.366 233.114 176.178 230.796C176.823 228.954 160.297 191.28 154.457 181.283C152.284 177.561 149.919 174.517 149.203 174.517C146.367 174.517 140.882 180.057 133.121 190.76C122.264 205.733 97.3212 244.651 97.3212 246.618C97.3212 247.807 99.9108 248.182 108.108 248.182C118.025 248.182 119.031 247.969 120.584 245.542ZM279.125 240.718C274.491 232.785 252.947 170.791 253.889 168.101C254.706 165.769 266.765 165.577 297.012 167.414C319.792 168.798 321.884 169.145 321.884 171.548C321.884 175.305 284.801 241.615 282.054 242.769C281.29 243.09 279.971 242.167 279.125 240.718ZM294.125 218.814C307.14 196.167 315.79 178.605 315.017 176.397C314.33 174.438 306.57 173.477 281.666 172.264C260.985 171.257 258.963 171.45 258.963 174.422C258.963 177.173 265.094 196.636 272.388 217.037C279.478 236.87 280.416 238.964 281.959 238.401C282.593 238.169 288.068 229.355 294.125 218.814ZM77.8719 231.251C71.4272 215.923 58.0085 176.687 57.8592 172.734L57.7245 169.17L93.2531 168.857C127.493 168.555 128.782 168.625 128.782 170.793C128.782 172.878 116.784 192.569 99.0041 219.667C89.2247 234.571 84.3965 241.053 83.0756 241.053C82.4803 241.053 80.1386 236.642 77.8719 231.251L77.8719 231.251ZM100.621 212.538C115.861 189.172 123.1 176.216 121.745 174.73C120.792 173.686 73.2692 173.001 67.2169 173.944C61.3934 174.851 61.3851 175.309 66.8643 193.261C73.4173 214.73 82.1007 236.487 83.9477 236.064C84.8066 235.868 92.3096 225.281 100.621 212.538ZM367.958 225.127C362.885 216.648 347.883 170.243 347.563 162.041L347.377 157.288L370.702 157.508C383.53 157.629 395.978 158.201 398.365 158.78C402.299 159.732 402.684 160.156 402.489 163.312C402.371 165.227 397.121 178.022 390.824 191.745C379.903 215.544 373 227.984 370.716 227.984C370.139 227.984 368.898 226.698 367.958 225.127L367.958 225.127ZM376.883 215.211C383.838 202.846 397.823 170.802 397.823 167.229C397.823 164.077 397.704 164.025 388.33 163.136C383.109 162.641 372.736 162.192 365.277 162.138L351.717 162.041L351.37 165.351C351.003 168.845 361.255 203.182 366.434 215.805C368.11 219.889 370.131 223.231 370.926 223.231C371.721 223.231 374.402 219.622 376.883 215.211V215.211ZM187.013 223.464C185.216 221.289 169.52 186.052 161.935 167.164C159.451 160.98 158.076 156.021 158.506 154.795C159.17 152.898 161.621 152.804 192.108 153.499C210.195 153.912 225.826 154.6 226.845 155.028C227.863 155.456 228.981 157.366 229.329 159.272C229.736 161.501 231.1 163.383 233.151 164.545C236.312 166.335 236.324 166.379 234.455 169.543C228.74 179.222 191.613 225.607 189.581 225.607C189.143 225.607 187.987 224.643 187.013 223.464ZM212.795 194.117C221.281 183.006 228.772 172.795 229.441 171.426C230.484 169.291 230.162 168.419 227.181 165.301C222.442 160.343 213.989 159.071 185.799 159.071C164.035 159.071 163.497 159.13 163.497 161.508C163.497 165.628 186.36 219.37 188.851 221.104C190.594 222.318 195.368 216.938 212.795 194.117ZM29.4025 170.261C29.7647 169.227 30.061 167.516 30.061 166.459C30.061 163.992 28.3863 165.883 27.3977 169.467C26.5686 172.473 28.3767 173.189 29.4025 170.261ZM96.385 123.453C83.7995 121.886 73.0785 116.509 68.4562 109.446C65.5607 105.021 62.9471 98.0786 60.9892 89.611C58.4195 78.4977 59.2341 75.3998 61.9389 85.9992C64.8263 97.314 68.8504 106.194 73.0823 110.59C80.2309 118.015 94.0327 121.522 113.48 120.856C124.766 120.469 125.488 120.279 134.718 115.266C153.187 105.235 164.746 88.9849 168.688 67.5095C170.824 55.878 171.879 58.9842 169.98 71.3126C166.596 93.2903 148.932 114.582 128.213 121.657C121.51 123.946 106.945 124.768 96.385 123.453ZM320.356 113.864C305.902 109.867 293.098 94.837 288.686 76.6883C287.002 69.7633 286.643 62.7791 288.187 66.9887C288.666 68.2956 290.12 72.8354 291.418 77.077C294.469 87.0503 298.228 93.9841 303.783 99.8888C313.298 110.002 324.583 113.232 344.123 111.435C375.299 108.568 384.986 99.536 388.028 70.4966L389.017 61.0479L388.635 72.3354C387.822 96.3089 381.475 105.774 362.156 111.819C353.782 114.439 327.147 115.742 320.356 113.864ZM96.5348 104.45C91.8619 103.234 88.0566 100.382 81.9607 93.5279C75.7561 86.5513 71.8537 78.0311 69.7188 66.7999C68.3562 59.6316 68.3241 57.3558 69.5147 52.3287C74.2556 32.3115 93.9756 14.5278 112.907 13.1972C123.277 12.4683 129.768 14.8029 137.218 21.9406C149.71 33.9087 156.988 47.781 156.988 59.6229C156.988 80.7411 144.852 99.2046 128.782 102.536C125.136 103.292 125.188 103.211 130.081 100.502C139.014 95.5572 146.77 87.3017 150.704 78.5494C153.72 71.8379 154.275 69.2997 154.275 62.2148C154.275 54.7683 153.849 53.032 150.479 46.7495C145.257 37.0178 134.594 25.4506 127.52 21.8435C118.394 17.1908 105.825 18.2197 94.5316 24.5439C87.3842 28.5464 78.0631 37.5483 74.8314 43.5695C72.1688 48.5304 71.8334 50.3139 71.8795 59.2657C71.937 70.4202 74.761 80.4787 79.485 86.3546L82.0649 89.5636L82.0992 86.2736C82.1241 83.8908 84.377 80.2217 90.2698 72.9677C94.7448 67.459 98.4061 62.5067 98.4061 61.9627C98.4061 61.4187 95.44 57.7822 91.8148 53.8818C83.6869 45.137 81.7644 41.473 83.1736 37.4137C83.7416 35.7774 85.4686 33.5329 87.0113 32.4258C90.7066 29.7739 92.9201 30.9213 101.944 40.1669C105.819 44.1364 109.47 47.3841 110.057 47.3841C110.645 47.3841 114.332 43.6414 118.25 39.067C126.243 29.7357 129.732 28.504 134.017 33.4999C137.978 38.1178 137.072 41.4846 129.324 50.9486C125.446 55.6857 122.273 60.106 122.273 60.7715C122.273 62.0358 129.307 69.8298 137.189 77.2981C142.473 82.3045 143.338 87.2847 139.63 91.3458C135.336 96.049 130.578 93.8663 115.413 80.2362L110.181 75.5336L101.829 84.6279C94.88 92.1939 92.8878 93.7222 89.9746 93.7222C88.0486 93.7222 86.4728 94.2869 86.4728 94.9771C86.4728 96.8121 95.3674 100.818 102.804 102.333C106.352 103.056 109.255 104.087 109.255 104.625C109.255 105.814 101.357 105.705 96.5348 104.45L96.5348 104.45ZM96.8358 86.2962C99.0943 83.5189 105.178 76.1672 110.355 69.9591C130.015 46.3822 134.206 40.948 134.206 39.0328C134.206 35.5841 130.161 32.5354 127.264 33.8007C125.008 34.7862 87.285 79.4399 85.0302 83.7944C83.696 86.3712 87.081 91.3458 90.1686 91.3458C91.814 91.3458 94.1974 89.5407 96.8358 86.2962ZM137.646 89.3795C140.641 86.4108 140.056 83.4981 135.602 79.196C133.386 77.0564 129.067 72.7661 126.004 69.662C122.942 66.558 119.72 64.0183 118.846 64.0183C117.972 64.0183 116.172 65.6245 114.847 67.5877C111.741 72.1887 112.48 73.6922 121.953 82.0493C133.268 92.0307 134.426 92.5714 137.646 89.3795ZM104.574 56.6822C108.75 52.386 107.811 49.6251 99.3883 41.4265C92.4534 34.6763 91.4066 34.0439 88.811 35.0376C86.7654 35.8208 85.828 37.1144 85.577 39.5008C85.2823 42.3033 86.4671 44.223 92.7127 51.0635C96.8316 55.5747 100.621 59.2657 101.132 59.2657C101.644 59.2657 103.193 58.1031 104.574 56.6822ZM340.326 92.0998C326.199 88.6079 316.487 78.4665 310.316 60.7632C308.117 54.4543 307.486 50.4161 307.377 41.9431C307.249 31.947 307.46 30.8037 310.267 26.362C311.981 23.6486 315.747 20.0818 318.945 18.1422C324.165 14.977 325.464 14.7155 335.987 14.7128C346.337 14.7104 347.957 15.0216 353.723 18.1224C366.538 25.0142 377.329 40.3856 378.909 53.999C379.78 61.509 377.137 73.5654 373.281 79.6672C366.735 90.0284 352.963 95.2237 340.326 92.0998ZM362.009 86.4341C368.422 83.3606 371.15 80.4044 373.801 73.6552C379.067 60.2486 377.536 47.42 369.472 37.3871L364.946 31.7558L363.562 36.1653C362.801 38.5905 360.435 42.5305 358.303 44.9207C356.172 47.3109 354.429 50.0032 354.429 50.9036C354.429 51.8039 357.602 56.1404 361.48 60.5402C365.359 64.94 368.532 69.3687 368.532 70.3817C368.532 75.186 363.938 80.6525 359.9 80.6525C359.386 80.6525 355.459 77.4444 351.174 73.5235C346.89 69.6026 342.754 66.3946 341.984 66.3946C341.214 66.3946 339.305 68.2298 337.743 70.4728C334.358 75.3339 331.529 76.5477 328.162 74.5834C322.314 71.1712 321.613 66.7548 325.838 59.9447L328.708 55.3195L322.553 49.2726C315.939 42.7734 314.971 39.5461 318.148 34.5788C320.618 30.7169 325.398 31.2286 333.562 36.2286L340.567 40.5191L347.446 33.0522C351.229 28.9454 354.079 25.1505 353.779 24.619C353.479 24.0876 349.867 22.5326 345.751 21.1636C339.097 18.9499 337.572 18.8319 331.975 20.0971C319.687 22.8745 313.478 28.4288 310.538 39.2726C309.075 44.6683 309.078 46.1582 310.575 53.3633C312.274 61.5442 317.642 72.7557 322.578 78.4314C326.204 82.6014 334.839 87.6478 340.567 88.9449C346.818 90.3604 356.08 89.276 362.009 86.4341ZM364.787 74.1973C366.987 70.5205 366.265 69.0506 357.78 59.916L351.21 52.8434L347.937 56.2768C346.138 58.1652 344.665 60.2642 344.665 60.9412C344.665 61.6182 347.702 65.5282 351.414 69.63C358.85 77.8468 361.967 78.9113 364.787 74.1973ZM337.183 66.6916C339.092 63.5876 345.217 55.9098 350.796 49.6298C361.014 38.1258 362.771 34.4212 359.636 30.9876C356.354 27.3932 353.51 29.4575 341.047 44.4788C334.24 52.6832 327.778 61.2111 326.687 63.4297C324.762 67.3435 324.763 67.536 326.718 69.8994C330.098 73.991 333.299 73.01 337.184 66.6916H337.183ZM335.981 47.3922C337.253 45.4362 337.983 43.2864 337.604 42.6149C336.63 40.8872 325.992 34.339 324.139 34.3256C321.88 34.3087 318.629 37.9095 318.629 40.4278C318.629 43.1041 328.02 50.8783 331.302 50.9191C332.713 50.936 334.603 49.5118 335.981 47.3922ZM58.6501 74.0915C58.3016 73.0969 58.2263 67.0819 58.4827 60.7248C58.9179 49.935 59.26 48.4948 63.6274 39.067C69.6897 25.9805 75.3457 18.2718 83.4029 12.1144C92.4729 5.18296 98.1255 3.26358 111.565 2.55165C130.749 1.53539 146.477 6.24793 154.979 15.5594C162.162 23.4264 170.621 43.9936 169.823 51.6522C169.545 54.3192 168.665 52.3824 165.965 43.1593C159.938 22.5733 151.833 12.1936 138.052 7.41139C129.417 4.41478 107.409 3.84013 98.8183 6.38698C84.3404 10.6792 74.306 20.7719 66.165 39.2303C60.6445 51.7472 58.8773 59.9091 59.7371 68.9183C60.3839 75.696 59.9446 77.7864 58.6501 74.0915ZM387.06 56.1963C387.112 54.8121 387.369 54.5306 387.715 55.4784C388.029 56.3361 387.99 57.3609 387.63 57.7557C387.269 58.1506 387.013 57.4489 387.06 56.1963H387.06ZM384.549 46.9491C379.176 30.3195 368.081 15.7564 355.705 9.08755C348.606 5.26248 348.272 5.20461 333.293 5.20461C319.094 5.20461 317.679 5.41409 311.93 8.36561C304.45 12.2062 296.457 20.0461 293.404 26.538C292.161 29.1813 290.247 34.8194 289.151 39.067L287.158 46.79L287.809 40.2552C289.215 26.1359 296.773 14.2779 308.496 7.79729C316.659 3.28502 324.544 1.8504 337.759 2.47328C348.373 2.97356 350.236 3.41287 356.465 6.88309C360.269 9.00291 365.824 13.2351 368.808 16.288C378.308 26.0071 387.468 43.0654 386.747 49.6941C386.469 52.2507 386.122 51.8167 384.549 46.9491Z" fill="#602A21"/>
</svg>
